# xmcd
#
# Track frame offsets:
# 150
# 16127
# 32206
# 47275
# 64061
# 81976
# 99253
# 115049
# 129375
# 144975
# 163433
# 180873
#
# Disc length: 2618 seconds
#
#
# Revision: 0
# Processed by: cddbd v1.5.1PL0 Copyright (c) Steve Scherf et al.
# Submitted via: FreeRIP 2.80 
#
DISCID=8f0a380c
DTITLE=Various Artist - Jim Hendricks Silver Screen Cowby
DYEAR=1900
DGENRE=Country
TTITLE0=You Are My Sunshine
TTITLE1=Happy Trails
TTITLE2=Springtime In The Rockies
TTITLE3=When You And I Were Young, Maggie
TTITLE4=The Yellow Rose Of Texas
TTITLE5=That Silver-Haired Daddy Of Mine
TTITLE6=Lonely River
TTITLE7=Great Speckled Bird
TTITLE8=The One Rose
TTITLE9=Buttons and Bows
TTITLE10=Oh Susanna - Rose Of Alabama
TTITLE11=Blue Eyes Crying In The Rain
EXTD=
EXTT0=
EXTT1=
EXTT2=
EXTT3=
EXTT4=
EXTT5=
EXTT6=
EXTT7=
EXTT8=
EXTT9=
EXTT10=
EXTT11=
PLAYORDER=
